<?xml version="1.0" standalone="no"?>
<!DOCTYPE svg PUBLIC "-//W3C//DTD SVG 20010904//EN"
 "http://www.w3.org/TR/2001/REC-SVG-20010904/DTD/svg10.dtd">
<svg version="1.0" xmlns="http://www.w3.org/2000/svg"
 width="300.000000pt" height="300.000000pt" viewBox="0 0 300.000000 300.000000"
 preserveAspectRatio="xMidYMid meet">
<metadata>
Created by potrace 1.11, written by Peter Selinger 2001-2013
</metadata>
<g transform="translate(0.000000,300.000000) scale(0.100000,-0.100000)"
fill="#000000" stroke="none">
<path d="M1103 2569 c1 -71 -1 -129 -6 -129 -6 0 -243 97 -257 105 -3 2 -4
-57 -3 -131 l2 -133 -47 19 c-42 16 -179 73 -209 86 -9 5 -12 -86 -12 -393 l1
-399 132 -54 133 -54 0 -128 c0 -71 4 -133 9 -138 5 -4 61 -29 124 -55 63 -26
119 -51 124 -55 5 -5 9 -66 9 -135 l0 -127 36 -15 c20 -8 50 -21 66 -28 17 -7
109 -45 205 -85 96 -40 189 -78 205 -85 17 -7 55 -23 85 -35 30 -12 79 -33
108 -46 29 -13 56 -24 61 -24 4 0 21 -6 37 -14 28 -14 366 -153 472 -195 l51
-20 -2 530 -2 531 -220 89 c-121 50 -295 121 -387 159 -92 39 -172 70 -177 70
-6 0 -10 -52 -9 -129 l1 -130 56 -22 c31 -12 74 -30 96 -40 22 -9 56 -24 76
-32 l36 -15 0 -265 0 -264 -116 48 c-271 112 -403 168 -408 173 -3 3 -5 64 -4
135 l1 129 -133 53 -134 53 0 397 0 397 21 -8 c12 -4 49 -20 84 -34 35 -15 85
-35 112 -46 l48 -19 0 125 c0 69 2 127 5 130 3 4 181 -64 262 -101 17 -7 93
-39 170 -70 77 -31 158 -65 180 -75 22 -9 63 -25 90 -35 28 -10 55 -22 60 -25
6 -4 21 -11 35 -15 14 -4 48 -18 75 -30 28 -12 57 -25 65 -27 8 -3 38 -15 67
-27 l52 -20 -2 131 -2 132 -105 44 c-58 24 -307 127 -555 228 -247 102 -463
191 -480 199 -26 12 -91 38 -162 66 -22 8 -22 8 -20 -122z"/>
</g>
</svg>
